<svg xmlns="http://www.w3.org/2000/svg" xmlns:xlink="http://www.w3.org/1999/xlink" preserveAspectRatio="xMidYMid" width="144" height="28" viewBox="0 0 144 28">
  <path fill="#7e7e7e" d="M142.528,6.602 C137.458,11.312 133.469,15.632 128.849,20.642 C127.529,22.052 126.599,23.132 126.599,23.732 C126.599,23.912 126.689,24.002 126.929,24.002 C127.649,24.002 128.489,23.552 131.129,21.482 C131.969,20.822 133.109,19.682 133.379,19.682 C133.709,19.682 134.009,20.402 134.009,20.642 C134.009,21.482 128.339,26.371 126.359,26.371 C125.069,26.371 124.079,25.262 124.079,23.912 C122.939,24.782 120.959,26.551 119.339,26.551 C117.539,26.551 116.099,23.822 116.099,22.622 C116.099,22.232 116.249,21.632 116.489,21.122 C118.229,17.192 123.959,13.052 126.509,13.052 C126.869,13.052 127.169,13.142 127.409,13.322 C128.339,14.072 128.849,15.002 129.149,15.602 C130.439,14.162 137.998,5.642 140.008,3.812 C140.218,3.602 140.368,3.512 140.548,3.512 C140.668,3.512 140.788,3.542 140.968,3.662 C141.748,4.172 142.768,5.552 142.768,6.002 C142.768,6.212 142.708,6.452 142.528,6.602 ZM126.809,16.322 C125.939,16.322 119.189,21.542 119.189,23.492 C119.189,23.792 119.219,24.032 119.699,24.032 C119.939,24.032 120.299,23.912 120.749,23.582 C122.159,22.592 127.589,18.032 127.589,17.042 C127.589,16.652 127.349,16.322 126.809,16.322 ZM114.809,16.802 C114.689,16.802 114.569,16.832 114.389,16.922 C112.619,17.852 109.349,20.732 105.869,24.482 C105.599,24.782 105.089,25.831 104.489,25.831 C104.175,25.831 103.372,25.030 103.074,24.106 C101.536,25.328 99.841,26.371 98.879,26.371 C97.619,26.371 96.599,25.232 96.599,23.582 C94.380,25.591 93.120,26.581 92.070,26.581 C91.140,26.581 90.450,25.891 89.880,24.842 C89.430,24.002 89.010,23.402 89.010,22.322 C89.010,22.082 89.040,21.782 89.160,21.482 C90.300,18.362 97.649,12.752 99.599,12.752 C100.889,12.752 101.969,14.132 102.959,15.092 C104.489,15.722 105.719,16.652 105.719,16.922 C105.719,17.012 105.629,17.072 105.599,17.102 C102.869,18.992 98.939,23.102 98.939,24.032 C98.939,24.182 99.059,24.302 99.239,24.302 C99.458,24.302 101.548,23.277 103.865,21.277 C104.267,20.747 104.739,20.256 105.149,19.832 C107.309,17.552 109.169,15.482 111.749,12.842 C111.899,12.692 112.049,12.632 112.199,12.632 C112.859,12.632 113.549,13.742 113.549,14.282 C113.549,14.642 113.249,14.972 112.949,15.362 C112.319,16.142 111.689,16.832 111.689,16.982 C113.489,15.632 116.729,13.322 117.929,13.322 C118.679,13.322 119.099,14.012 119.099,14.612 C119.099,16.292 116.579,18.002 116.309,18.002 C115.769,18.002 115.499,16.802 114.809,16.802 ZM101.009,16.592 C101.039,16.532 101.069,16.442 101.069,16.382 C101.069,16.172 100.889,15.992 100.589,15.992 C100.259,15.992 99.119,16.652 98.279,17.222 C96.509,18.452 95.220,19.592 93.840,21.062 C92.850,22.112 91.680,23.432 91.680,24.152 C91.680,24.392 91.950,24.632 92.100,24.632 C92.190,24.632 92.280,24.602 92.400,24.542 C94.620,23.462 100.859,16.892 101.009,16.592 ZM88.619,15.722 C88.409,15.722 88.199,15.752 87.959,15.782 C88.799,16.052 89.069,17.072 89.069,18.062 C89.069,18.632 89.009,19.262 88.799,19.802 C87.749,22.412 83.670,26.191 80.520,26.191 C80.040,26.191 79.350,26.101 78.990,25.801 C78.150,25.112 75.900,22.832 75.900,20.912 C75.900,17.732 80.640,14.522 84.000,12.962 C84.930,12.542 85.679,12.452 86.219,12.452 C87.089,12.452 87.449,12.812 88.199,13.682 C88.829,14.432 89.159,15.302 89.159,15.512 C89.159,15.692 88.919,15.722 88.619,15.722 ZM78.540,22.862 C78.540,23.282 78.990,23.702 79.350,23.702 C80.370,23.702 82.800,22.052 83.400,21.602 C84.660,20.642 85.679,19.412 85.679,18.992 C85.679,18.662 85.409,18.392 85.409,17.792 C85.409,17.402 85.799,16.652 86.369,16.172 C82.830,17.432 78.570,20.972 78.540,22.862 ZM72.060,13.592 C73.140,13.592 74.010,14.072 74.640,14.672 C75.420,15.392 75.990,16.022 75.990,16.772 C75.990,17.222 75.840,17.792 75.690,18.152 C74.580,20.852 70.050,26.671 66.870,26.671 C65.640,26.671 64.770,25.891 63.510,24.512 C62.572,23.493 62.473,22.906 62.462,22.429 C60.643,24.137 57.619,26.371 56.280,26.371 C54.990,26.371 54.000,25.262 54.000,23.912 C52.860,24.782 50.880,26.551 49.260,26.551 C47.460,26.551 46.020,23.822 46.020,22.622 C46.020,22.232 46.170,21.632 46.410,21.122 C48.150,17.192 53.880,13.052 56.430,13.052 C56.790,13.052 57.090,13.142 57.330,13.322 C58.260,14.072 58.770,15.002 59.070,15.602 C60.360,14.162 67.919,5.642 69.929,3.812 C70.139,3.602 70.289,3.512 70.469,3.512 C70.589,3.512 70.709,3.542 70.889,3.662 C71.669,4.172 72.689,5.552 72.689,6.002 C72.689,6.212 72.629,6.452 72.449,6.602 C67.379,11.312 63.390,15.632 58.770,20.642 C57.450,22.052 56.520,23.132 56.520,23.732 C56.520,23.912 56.610,24.002 56.850,24.002 C57.570,24.002 58.410,23.552 61.050,21.482 C61.752,20.930 62.663,20.044 63.101,19.768 C63.288,19.359 63.494,18.973 63.690,18.632 C65.310,15.872 67.410,13.832 71.040,10.262 C75.750,5.612 77.640,3.932 79.290,2.522 C79.590,2.252 79.800,2.072 80.070,2.072 C80.370,2.072 81.899,3.632 81.899,4.442 C81.899,4.532 81.839,4.742 81.719,4.892 C80.549,6.452 76.680,8.972 72.060,13.592 ZM57.510,17.042 C57.510,16.652 57.270,16.322 56.730,16.322 C55.860,16.322 49.110,21.542 49.110,23.492 C49.110,23.792 49.140,24.032 49.620,24.032 C49.860,24.032 50.220,23.912 50.670,23.582 C52.080,22.592 57.510,18.032 57.510,17.042 ZM65.580,22.982 C65.580,23.252 65.640,23.582 66.030,23.582 C66.510,23.582 67.020,23.312 68.010,22.472 C69.600,21.122 73.050,17.102 73.110,15.512 C73.110,15.182 72.810,15.032 72.540,15.032 C70.680,15.032 65.580,21.212 65.580,22.982 ZM44.730,16.802 C44.610,16.802 44.490,16.832 44.310,16.922 C42.540,17.852 39.270,20.732 35.790,24.482 C35.520,24.782 35.010,25.831 34.410,25.831 C34.096,25.831 33.293,25.030 32.995,24.105 C31.457,25.328 29.762,26.371 28.800,26.371 C27.540,26.371 26.520,25.232 26.520,23.582 C24.301,25.591 23.041,26.581 21.991,26.581 C21.061,26.581 20.371,25.891 19.801,24.842 C19.351,24.002 18.931,23.402 18.931,22.322 C18.931,22.082 18.961,21.782 19.081,21.482 C19.089,21.458 19.102,21.432 19.111,21.408 C16.702,23.161 13.886,24.786 11.340,25.981 C10.290,26.491 8.850,26.941 7.081,26.941 C6.841,26.941 6.571,26.941 6.301,26.911 C3.751,26.701 0.001,22.112 0.001,19.382 C0.001,14.372 7.470,8.402 13.380,5.102 C15.090,4.142 22.080,0.842 25.920,0.842 C27.630,0.842 28.350,2.102 29.190,3.542 C30.240,4.502 30.900,5.822 30.900,6.662 C30.900,8.672 24.840,12.482 20.940,14.342 C19.170,15.182 16.320,16.022 14.940,16.022 C14.280,16.022 13.020,15.062 13.020,14.012 C13.020,12.632 17.640,10.622 18.000,10.622 C18.360,10.622 18.120,11.612 18.300,11.582 C18.720,11.522 24.960,8.252 27.300,5.822 C27.480,5.642 27.570,5.492 27.570,5.222 C27.570,4.772 27.390,4.352 26.790,4.352 C25.920,4.352 22.530,5.912 20.700,6.662 C12.420,10.142 3.181,17.762 3.181,21.782 C3.181,23.342 4.501,23.732 5.731,23.732 C7.201,23.732 9.150,23.192 10.860,22.622 C15.350,21.135 19.775,18.687 23.381,16.457 C25.777,14.428 28.455,12.752 29.520,12.752 C30.810,12.752 31.890,14.132 32.880,15.092 C34.410,15.722 35.640,16.652 35.640,16.922 C35.640,17.012 35.550,17.072 35.520,17.102 C32.790,18.992 28.860,23.102 28.860,24.032 C28.860,24.182 28.980,24.302 29.160,24.302 C29.379,24.302 31.469,23.277 33.786,21.277 C34.188,20.747 34.659,20.256 35.070,19.832 C37.230,17.552 39.090,15.482 41.670,12.842 C41.820,12.692 41.970,12.632 42.120,12.632 C42.780,12.632 43.470,13.742 43.470,14.282 C43.470,14.642 43.170,14.972 42.870,15.362 C42.240,16.142 41.610,16.832 41.610,16.982 C43.410,15.632 46.650,13.322 47.850,13.322 C48.600,13.322 49.020,14.012 49.020,14.612 C49.020,16.292 46.500,18.002 46.230,18.002 C45.690,18.002 45.420,16.802 44.730,16.802 ZM30.930,16.592 C30.960,16.532 30.990,16.442 30.990,16.382 C30.990,16.172 30.810,15.992 30.510,15.992 C30.180,15.992 29.040,16.652 28.200,17.222 C26.430,18.452 25.140,19.592 23.761,21.062 C22.771,22.112 21.601,23.432 21.601,24.152 C21.601,24.392 21.871,24.632 22.021,24.632 C22.111,24.632 22.201,24.602 22.321,24.542 C24.540,23.462 30.780,16.892 30.930,16.592 Z" id="path-1" class="cls-2" fill-rule="evenodd"/>
</svg>
